<svg width="155" height="15" viewBox="0 0 155 15" fill="none" xmlns="http://www.w3.org/2000/svg">
<path d="M77.4932 1.09091H73.2597C73.1785 1.09091 73.1515 1.06364 73.1515 0.981818V0H70V4.09091C70 4.21364 70.0676 4.26818 70.2029 4.26818H71.6772L75.505 15H77.4932H79.495L83.3093 4.26818H84.7971C84.9324 4.26818 85 4.21364 85 4.09091V0H81.8485V0.981818C81.8485 1.06364 81.8079 1.09091 81.7268 1.09091H77.4932ZM77.4932 10.8545C77.4121 10.8545 77.3445 10.8 77.3174 10.7045L75.1262 4.52727C75.0992 4.45909 75.0992 4.40455 75.1398 4.35C75.1803 4.29545 75.2344 4.26818 75.3021 4.26818H77.4932H79.6979C79.7656 4.26818 79.8061 4.29545 79.8467 4.35C79.8873 4.40455 79.9008 4.45909 79.8738 4.52727L77.6826 10.7045C77.6555 10.8 77.5879 10.8545 77.4932 10.8545Z" fill="white"/>
<path d="M0 7H30H60" stroke="white"/>
<path d="M95 7H125H155" stroke="white"/>
</svg>
